<?xml version="1.0" encoding="UTF-8"?>
<svg xmlns="http://www.w3.org/2000/svg" xmlns:xlink="http://www.w3.org/1999/xlink" width="200px" height="200px" viewBox="0 0 200 200" version="1.1">
<g id="surface1">
<path style=" stroke:none;fill-rule:nonzero;fill:rgb(27.45098%,23.921569%,23.137255%);fill-opacity:1;" d="M 0.347656 199.988281 L 199.800781 199.988281 L 199.800781 0.53125 L 0.347656 0.53125 Z M 0.347656 199.988281 "/>
<path style=" stroke:none;fill-rule:evenodd;fill:rgb(37.254902%,30.980392%,20%);fill-opacity:1;" d="M 147.601562 38.117188 C 148.660156 42.386719 151.558594 45.699219 155.738281 47.355469 L 166.632812 51.679688 C 170.183594 53.089844 172.722656 55.597656 174.175781 59.136719 C 175.621094 62.671875 175.574219 66.246094 174.035156 69.742188 C 171.875 74.644531 172.738281 80.148438 176.367188 84.199219 L 177.429688 85.386719 C 180.242188 88.523438 180.363281 93.152344 177.71875 96.433594 C 177.285156 96.972656 176.90625 97.582031 176.59375 98.25 C 175.503906 100.574219 175.480469 103.003906 176.527344 105.347656 C 178.949219 110.765625 177.582031 117.160156 172.941406 121.128906 C 169.074219 124.4375 167.417969 129.554688 168.59375 134.480469 C 169.882812 139.871094 167.949219 145.199219 163.503906 148.503906 C 160.644531 150.632812 158.660156 153.851562 158.148438 157.503906 C 157.207031 164.234375 151.550781 169.167969 144.757812 169.179688 C 139.714844 169.191406 135.050781 172.035156 132.738281 176.527344 C 130.097656 181.660156 124.808594 184.472656 119.078125 183.785156 C 117.847656 183.636719 116.566406 183.660156 115.261719 183.859375 C 113.917969 184.066406 112.652344 184.445312 111.488281 184.984375 C 105.925781 187.558594 99.570312 186.191406 95.554688 181.554688 L 93.792969 179.523438 C 90.34375 175.535156 85.269531 173.957031 80.167969 175.273438 L 76.207031 176.292969 C 69.953125 177.910156 63.59375 175.011719 60.703125 169.238281 C 58.488281 164.816406 53.949219 161.828125 48.710938 161.777344 L 45.34375 161.746094 C 38.179688 161.679688 32.324219 156.082031 31.9375 148.925781 C 31.691406 144.355469 29.128906 140.039062 24.824219 137.722656 L 23.695312 137.113281 C 18.472656 134.300781 15.753906 128.714844 16.765625 122.867188 C 16.945312 121.839844 17.003906 120.773438 16.945312 119.675781 C 16.832031 117.480469 16.25 115.464844 15.242188 113.691406 C 12.617188 109.058594 12.855469 103.683594 15.878906 99.300781 C 16.738281 98.0625 17.390625 96.652344 17.820312 95.097656 C 18.363281 93.121094 18.480469 91.160156 18.175781 89.277344 C 17.414062 84.605469 18.949219 80.230469 22.457031 77.058594 C 25.605469 74.207031 27.359375 69.933594 26.828125 65.414062 L 26.707031 64.371094 C 26.175781 59.894531 27.703125 55.808594 31.035156 52.769531 C 32.96875 51.011719 35.195312 49.886719 37.585938 49.4375 C 43.417969 48.339844 47.707031 43.832031 48.503906 37.949219 C 49.082031 33.707031 51.367188 30.28125 55.074219 28.105469 C 58.78125 25.933594 62.890625 25.609375 66.875 27.179688 C 72.136719 29.253906 77.824219 27.980469 81.703125 23.863281 C 84.175781 21.238281 87.417969 19.808594 91.144531 19.714844 C 94.449219 19.632812 97.425781 20.621094 99.867188 22.589844 C 104.09375 25.992188 109.574219 26.582031 114.425781 24.15625 C 116.519531 23.109375 118.878906 22.644531 121.386719 22.816406 C 125.480469 23.097656 128.941406 24.988281 131.316406 28.207031 C 133.105469 30.632812 135.941406 31.84375 138.753906 31.65625 C 142.917969 31.382812 146.597656 34.070312 147.601562 38.117188 "/>
<path style=" stroke:none;fill-rule:evenodd;fill:rgb(47.45098%,39.607843%,22.745098%);fill-opacity:1;" d="M 125.925781 34.679688 C 127.855469 38.113281 131.144531 40.277344 135.148438 40.710938 L 145.582031 41.84375 C 148.980469 42.210938 151.773438 43.773438 153.867188 46.476562 C 155.960938 49.183594 156.769531 52.277344 156.277344 55.660156 C 155.582031 60.40625 157.636719 64.949219 161.738281 67.582031 L 162.933594 68.351562 C 166.113281 70.386719 167.316406 74.351562 165.820312 77.816406 C 165.574219 78.386719 165.394531 79 165.28125 79.652344 C 164.894531 81.917969 165.457031 84.019531 166.917969 85.792969 C 170.296875 89.890625 170.644531 95.734375 167.585938 100.261719 C 165.035156 104.042969 164.832031 108.851562 167.019531 112.824219 C 169.417969 117.164062 169.019531 122.222656 165.96875 126.136719 C 164.011719 128.652344 163.066406 131.90625 163.496094 135.179688 C 164.292969 141.210938 160.585938 146.816406 154.730469 148.449219 C 150.378906 149.660156 147.035156 153.226562 146.109375 157.65625 C 145.054688 162.714844 141.160156 166.398438 136.050781 167.171875 C 134.953125 167.339844 133.855469 167.664062 132.777344 168.148438 C 131.664062 168.644531 130.667969 169.277344 129.789062 170.019531 C 125.601562 173.566406 119.792969 173.902344 115.222656 170.863281 L 113.21875 169.527344 C 109.292969 166.910156 104.535156 166.753906 100.445312 169.109375 L 97.273438 170.933594 C 92.261719 173.820312 86.082031 172.835938 82.210938 168.542969 C 79.246094 165.253906 74.617188 163.757812 70.085938 164.964844 L 67.171875 165.742188 C 60.976562 167.394531 54.585938 163.957031 52.546875 157.878906 C 51.246094 153.992188 48.003906 150.878906 43.738281 149.90625 L 42.617188 149.652344 C 37.441406 148.46875 33.761719 144.296875 33.242188 139.011719 C 33.152344 138.082031 32.949219 137.144531 32.636719 136.214844 C 32.011719 134.347656 31.03125 132.746094 29.738281 131.453125 C 26.367188 128.085938 25.292969 123.390625 26.855469 118.886719 C 27.300781 117.613281 27.527344 116.238281 27.527344 114.792969 C 27.527344 112.957031 27.15625 111.242188 26.445312 109.691406 C 24.675781 105.839844 24.957031 101.699219 27.230469 98.121094 C 29.265625 94.914062 29.757812 90.808594 28.222656 87.035156 L 27.867188 86.167969 C 26.347656 82.425781 26.683594 78.539062 28.839844 75.121094 C 30.085938 73.140625 31.738281 71.640625 33.695312 70.683594 C 38.464844 68.34375 41.089844 63.433594 40.375 58.164062 C 39.863281 54.371094 41.019531 50.867188 43.699219 48.105469 C 46.378906 45.347656 49.847656 44.089844 53.660156 44.492188 C 58.691406 45.027344 63.296875 42.570312 65.660156 38.09375 C 67.167969 35.238281 69.625 33.230469 72.820312 32.261719 C 75.652344 31.402344 78.457031 31.550781 81.035156 32.664062 C 85.492188 34.589844 90.363281 33.792969 93.96875 30.542969 C 95.527344 29.140625 97.449219 28.179688 99.660156 27.730469 C 103.253906 26.992188 106.691406 27.796875 109.507812 30.011719 C 111.628906 31.675781 114.371094 32.042969 116.753906 31.214844 C 120.277344 29.984375 124.09375 31.425781 125.925781 34.679688 "/>
<path style=" stroke:none;fill-rule:evenodd;fill:rgb(68.235294%,56.470588%,28.627451%);fill-opacity:1;" d="M 111.550781 38.691406 C 113.785156 41.355469 116.996094 42.703125 120.542969 42.425781 L 129.792969 41.710938 C 132.808594 41.476562 135.488281 42.378906 137.746094 44.386719 C 140.003906 46.398438 141.214844 48.953125 141.332031 51.972656 C 141.503906 56.207031 144.03125 59.824219 148.019531 61.441406 L 149.1875 61.914062 C 152.277344 63.167969 153.972656 66.410156 153.234375 69.664062 C 153.113281 70.199219 153.058594 70.761719 153.066406 71.347656 C 153.101562 73.378906 153.929688 75.113281 155.488281 76.417969 C 159.089844 79.425781 160.34375 84.445312 158.425781 88.878906 C 156.828125 92.574219 157.429688 96.789062 159.980469 99.882812 C 162.769531 103.261719 163.246094 107.722656 161.238281 111.621094 C 159.941406 114.128906 159.652344 117.105469 160.5625 119.878906 C 162.234375 124.988281 159.925781 130.460938 155.105469 132.832031 C 151.523438 134.59375 149.199219 138.238281 149.117188 142.238281 C 149.023438 146.800781 146.242188 150.636719 141.929688 152.144531 C 141 152.464844 140.101562 152.925781 139.246094 153.523438 C 138.359375 154.136719 137.59375 154.847656 136.953125 155.632812 C 133.894531 159.402344 128.902344 160.636719 124.433594 158.738281 L 122.476562 157.90625 C 118.636719 156.273438 114.480469 156.914062 111.3125 159.625 L 108.855469 161.730469 C 104.96875 165.050781 99.441406 165.203125 95.378906 162.105469 C 92.269531 159.730469 88.003906 159.183594 84.261719 160.972656 L 81.859375 162.121094 C 76.746094 164.566406 70.632812 162.621094 67.871094 157.667969 C 66.105469 154.507812 62.785156 152.332031 58.917969 152.179688 L 57.90625 152.140625 C 53.214844 151.957031 49.339844 148.929688 48.027344 144.425781 C 47.796875 143.632812 47.46875 142.851562 47.042969 142.089844 C 46.199219 140.574219 45.085938 139.339844 43.753906 138.429688 C 40.277344 136.050781 38.574219 132.148438 39.203125 127.980469 C 39.378906 126.800781 39.355469 125.574219 39.121094 124.316406 C 38.816406 122.722656 38.21875 121.292969 37.347656 120.058594 C 35.183594 117.003906 34.75 113.363281 36.144531 109.882812 C 37.390625 106.761719 37.148438 103.113281 35.199219 100.089844 L 34.75 99.390625 C 32.816406 96.390625 32.480469 92.957031 33.792969 89.636719 C 34.554688 87.714844 35.746094 86.144531 37.289062 84.992188 C 41.054688 82.183594 42.53125 77.488281 41.054688 73.027344 C 39.992188 69.816406 40.425781 66.582031 42.300781 63.75 C 44.183594 60.914062 46.992188 59.253906 50.367188 58.988281 C 54.828125 58.628906 58.429688 55.746094 59.753906 51.472656 C 60.597656 48.746094 62.402344 46.601562 65.019531 45.238281 C 67.339844 44.035156 69.800781 43.703125 72.222656 44.25 C 76.410156 45.199219 80.511719 43.710938 83.113281 40.300781 C 84.238281 38.832031 85.753906 37.683594 87.597656 36.929688 C 90.601562 35.707031 93.722656 35.84375 96.527344 37.308594 C 98.640625 38.410156 101.082031 38.285156 103.015625 37.175781 C 105.878906 35.53125 109.429688 36.160156 111.550781 38.691406 "/>
<path style=" stroke:none;fill-rule:evenodd;fill:rgb(98.039216%,70.588235%,3.921569%);fill-opacity:1;" d="M 100.074219 154.296875 C 129.839844 154.296875 154.113281 130.023438 154.113281 100.261719 C 154.113281 70.496094 129.839844 46.222656 100.074219 46.222656 C 70.3125 46.222656 46.039062 70.496094 46.039062 100.261719 C 46.039062 130.023438 70.3125 154.296875 100.074219 154.296875 "/>
<path style=" stroke:none;fill-rule:evenodd;fill:rgb(98.431373%,79.215686%,2.745098%);fill-opacity:1;" d="M 100.074219 46.222656 C 117.519531 46.222656 133.027344 54.488281 142.910156 67.316406 C 144.898438 72.949219 145.984375 79.007812 145.984375 85.324219 C 145.984375 115.167969 121.792969 139.359375 91.949219 139.359375 C 74.503906 139.359375 58.996094 131.09375 49.113281 118.265625 C 47.125 112.632812 46.039062 106.574219 46.039062 100.261719 C 46.039062 70.417969 70.230469 46.222656 100.074219 46.222656 "/>
<path style=" stroke:none;fill-rule:evenodd;fill:rgb(97.647059%,87.058824%,10.980392%);fill-opacity:1;" d="M 91.558594 51.238281 C 108.03125 51.238281 117.550781 64.589844 112.824219 81.0625 C 108.09375 97.53125 90.910156 110.886719 74.441406 110.886719 C 57.96875 110.886719 48.449219 97.53125 53.175781 81.0625 C 57.90625 64.589844 75.089844 51.238281 91.558594 51.238281 "/>
<path style=" stroke:none;fill-rule:evenodd;fill:rgb(98.039216%,70.588235%,3.921569%);fill-opacity:1;" d="M 104.480469 150.824219 C 114.457031 150.824219 122.601562 144.511719 122.601562 136.769531 C 122.601562 129.027344 114.457031 122.710938 104.480469 122.710938 C 94.496094 122.710938 86.355469 129.027344 86.355469 136.769531 C 86.355469 144.511719 94.496094 150.824219 104.480469 150.824219 "/>
<path style=" stroke:none;fill-rule:evenodd;fill:rgb(95.294118%,61.176471%,5.882353%);fill-opacity:1;" d="M 104.480469 141.921875 C 110.164062 141.921875 114.800781 138.324219 114.800781 133.910156 C 114.800781 129.503906 110.164062 125.902344 104.480469 125.902344 C 98.792969 125.902344 94.152344 129.503906 94.152344 133.910156 C 94.152344 138.324219 98.792969 141.921875 104.480469 141.921875 "/>
<path style=" stroke:none;fill-rule:evenodd;fill:rgb(98.039216%,70.588235%,3.921569%);fill-opacity:1;" d="M 123.449219 66.207031 C 129.027344 63.511719 136.363281 67.152344 139.832031 74.339844 C 143.308594 81.527344 141.601562 89.539062 136.027344 92.234375 C 130.449219 94.925781 123.113281 91.285156 119.640625 84.101562 C 116.167969 76.914062 117.871094 68.902344 123.449219 66.207031 "/>
<path style=" stroke:none;fill-rule:evenodd;fill:rgb(95.294118%,61.176471%,5.882353%);fill-opacity:1;" d="M 124.128906 69.886719 C 128.128906 67.957031 133.390625 70.566406 135.882812 75.722656 C 138.371094 80.875 137.148438 86.621094 133.148438 88.554688 C 129.148438 90.488281 123.886719 87.875 121.394531 82.722656 C 118.90625 77.566406 120.128906 71.820312 124.128906 69.886719 "/>
<path style=" stroke:none;fill-rule:evenodd;fill:rgb(87.45098%,54.901961%,8.627451%);fill-opacity:1;" d="M 124.53125 73.324219 C 127.199219 72.035156 130.710938 73.777344 132.371094 77.214844 C 134.035156 80.652344 133.21875 84.488281 130.550781 85.777344 C 127.882812 87.066406 124.371094 85.324219 122.707031 81.886719 C 121.046875 78.445312 121.863281 74.613281 124.53125 73.324219 "/>
<path style=" stroke:none;fill-rule:evenodd;fill:rgb(87.45098%,54.901961%,8.627451%);fill-opacity:1;" d="M 104.480469 137.273438 C 108.113281 137.273438 111.074219 134.972656 111.074219 132.15625 C 111.074219 129.335938 108.113281 127.035156 104.480469 127.035156 C 100.84375 127.035156 97.878906 129.335938 97.878906 132.15625 C 97.878906 134.972656 100.84375 137.273438 104.480469 137.273438 "/>
<path style=" stroke:none;fill-rule:evenodd;fill:rgb(98.039216%,70.588235%,3.921569%);fill-opacity:1;" d="M 69.277344 103.464844 C 73.816406 106.238281 75.914062 111.089844 73.953125 114.296875 C 71.996094 117.503906 66.726562 117.855469 62.183594 115.082031 C 57.640625 112.304688 55.546875 107.457031 57.503906 104.25 C 59.464844 101.042969 64.734375 100.691406 69.277344 103.464844 "/>
<path style=" stroke:none;fill-rule:evenodd;fill:rgb(95.294118%,61.176471%,5.882353%);fill-opacity:1;" d="M 69.023438 104.378906 C 71.902344 106.140625 73.234375 109.214844 71.992188 111.25 C 70.746094 113.285156 67.40625 113.507812 64.523438 111.746094 C 61.644531 109.988281 60.3125 106.910156 61.554688 104.878906 C 62.796875 102.84375 66.140625 102.621094 69.023438 104.378906 "/>
<path style=" stroke:none;fill-rule:evenodd;fill:rgb(87.45098%,54.901961%,8.627451%);fill-opacity:1;" d="M 68.539062 105.007812 C 70.027344 105.917969 70.714844 107.507812 70.074219 108.558594 C 69.433594 109.609375 67.703125 109.726562 66.214844 108.816406 C 64.722656 107.90625 64.039062 106.316406 64.679688 105.265625 C 65.324219 104.214844 67.050781 104.097656 68.539062 105.007812 "/>
<path style=" stroke:none;fill-rule:evenodd;fill:rgb(98.039216%,70.588235%,3.921569%);fill-opacity:1;" d="M 90.292969 82.09375 C 82.9375 87.457031 73.90625 87.597656 70.121094 82.410156 C 66.332031 77.214844 69.222656 68.65625 76.578125 63.292969 C 83.933594 57.925781 92.964844 57.785156 96.753906 62.980469 C 100.539062 68.171875 97.644531 76.730469 90.292969 82.09375 "/>
<path style=" stroke:none;fill-rule:evenodd;fill:rgb(95.294118%,61.176471%,5.882353%);fill-opacity:1;" d="M 89.011719 81.097656 C 84.347656 84.5 78.617188 84.589844 76.214844 81.292969 C 73.8125 78.003906 75.644531 72.574219 80.3125 69.167969 C 84.976562 65.765625 90.707031 65.675781 93.109375 68.96875 C 95.511719 72.261719 93.675781 77.691406 89.011719 81.097656 "/>
<path style=" stroke:none;fill-rule:evenodd;fill:rgb(87.45098%,54.901961%,8.627451%);fill-opacity:1;" d="M 88.339844 79.921875 C 85.925781 81.683594 82.964844 81.730469 81.722656 80.027344 C 80.480469 78.324219 81.429688 75.519531 83.839844 73.757812 C 86.253906 72 89.214844 71.953125 90.457031 73.65625 C 91.699219 75.355469 90.75 78.164062 88.339844 79.921875 "/>
<path style=" stroke:none;fill-rule:evenodd;fill:rgb(98.039216%,70.588235%,3.921569%);fill-opacity:1;" d="M 132.890625 104.886719 C 134.949219 101.023438 138.832031 99.070312 141.558594 100.523438 C 144.285156 101.980469 144.824219 106.289062 142.765625 110.152344 C 140.707031 114.011719 136.824219 115.964844 134.097656 114.511719 C 131.371094 113.058594 130.832031 108.746094 132.890625 104.886719 "/>
<path style=" stroke:none;fill-rule:evenodd;fill:rgb(95.294118%,61.176471%,5.882353%);fill-opacity:1;" d="M 133.652344 105.050781 C 134.960938 102.597656 137.421875 101.359375 139.152344 102.285156 C 140.882812 103.207031 141.226562 105.941406 139.917969 108.390625 C 138.613281 110.839844 136.152344 112.078125 134.421875 111.15625 C 132.691406 110.234375 132.347656 107.5 133.652344 105.050781 "/>
<path style=" stroke:none;fill-rule:evenodd;fill:rgb(87.45098%,54.901961%,8.627451%);fill-opacity:1;" d="M 134.191406 105.414062 C 134.867188 104.148438 136.140625 103.507812 137.035156 103.984375 C 137.925781 104.464844 138.105469 105.875 137.429688 107.140625 C 136.753906 108.410156 135.480469 109.050781 134.589844 108.570312 C 133.691406 108.097656 133.519531 106.683594 134.191406 105.414062 "/>
<path style=" stroke:none;fill-rule:evenodd;fill:rgb(98.039216%,95.686275%,38.431373%);fill-opacity:1;" d="M 18.367188 13.332031 L 19.246094 16.1875 L 22.101562 17.066406 L 19.246094 17.941406 L 18.367188 20.800781 L 17.488281 17.941406 L 14.632812 17.066406 L 17.488281 16.1875 Z M 18.367188 13.332031 "/>
<path style=" stroke:none;fill-rule:evenodd;fill:rgb(98.039216%,95.686275%,38.431373%);fill-opacity:1;" d="M 43.410156 11.132812 L 43.871094 12.644531 L 45.386719 13.109375 L 43.871094 13.574219 L 43.410156 15.085938 L 42.945312 13.574219 L 41.433594 13.109375 L 42.945312 12.644531 Z M 43.410156 11.132812 "/>
<path style=" stroke:none;fill-rule:evenodd;fill:rgb(98.039216%,95.686275%,38.431373%);fill-opacity:1;" d="M 143.355469 15.085938 L 143.769531 16.433594 L 145.113281 16.84375 L 143.769531 17.257812 L 143.355469 18.601562 L 142.941406 17.257812 L 141.597656 16.84375 L 142.941406 16.433594 Z M 143.355469 15.085938 "/>
<path style=" stroke:none;fill-rule:evenodd;fill:rgb(98.039216%,95.686275%,38.431373%);fill-opacity:1;" d="M 173.011719 17.722656 L 173.578125 19.574219 L 175.425781 20.140625 L 173.578125 20.707031 L 173.011719 22.558594 L 172.441406 20.707031 L 170.59375 20.140625 L 172.441406 19.574219 Z M 173.011719 17.722656 "/>
<path style=" stroke:none;fill-rule:evenodd;fill:rgb(98.039216%,95.686275%,38.431373%);fill-opacity:1;" d="M 180.039062 158.746094 L 180.917969 161.605469 L 183.773438 162.480469 L 180.917969 163.359375 L 180.039062 166.214844 L 179.160156 163.359375 L 176.304688 162.480469 L 179.160156 161.605469 Z M 180.039062 158.746094 "/>
<path style=" stroke:none;fill-rule:evenodd;fill:rgb(98.039216%,95.686275%,38.431373%);fill-opacity:1;" d="M 167.519531 181.152344 L 168.34375 183.839844 L 171.035156 184.667969 L 168.34375 185.496094 L 167.519531 188.183594 L 166.691406 185.496094 L 164.003906 184.667969 L 166.691406 183.839844 Z M 167.519531 181.152344 "/>
<path style=" stroke:none;fill-rule:evenodd;fill:rgb(98.039216%,95.686275%,38.431373%);fill-opacity:1;" d="M 28.03125 176.761719 L 29.324219 180.960938 L 33.523438 182.253906 L 29.324219 183.542969 L 28.03125 187.742188 L 26.742188 183.542969 L 22.542969 182.253906 L 26.742188 180.960938 Z M 28.03125 176.761719 "/>
<path style=" stroke:none;fill-rule:evenodd;fill:rgb(98.039216%,95.686275%,38.431373%);fill-opacity:1;" d="M 60.761719 180.714844 L 61.277344 182.394531 L 62.957031 182.910156 L 61.277344 183.425781 L 60.761719 185.105469 L 60.246094 183.425781 L 58.566406 182.910156 L 60.246094 182.394531 Z M 60.761719 180.714844 "/>
<path style=" stroke:none;fill-rule:evenodd;fill:rgb(98.039216%,95.686275%,38.431373%);fill-opacity:1;" d="M 14.191406 146.445312 L 14.710938 148.128906 L 16.390625 148.644531 L 14.710938 149.160156 L 14.191406 150.839844 L 13.675781 149.160156 L 11.996094 148.644531 L 13.675781 148.128906 Z M 14.191406 146.445312 "/>
<path style=" stroke:none;fill-rule:evenodd;fill:rgb(98.039216%,95.686275%,38.431373%);fill-opacity:1;" d="M 11.996094 56.382812 L 12.511719 58.066406 L 14.191406 58.582031 L 12.511719 59.097656 L 11.996094 60.777344 L 11.480469 59.097656 L 9.800781 58.582031 L 11.480469 58.066406 Z M 11.996094 56.382812 "/>
<path style=" stroke:none;fill-rule:evenodd;fill:rgb(98.039216%,95.686275%,38.431373%);fill-opacity:1;" d="M 32.425781 28.707031 L 33.097656 30.890625 L 35.28125 31.5625 L 33.097656 32.234375 L 32.425781 34.417969 L 31.753906 32.234375 L 29.570312 31.5625 L 31.753906 30.890625 Z M 32.425781 28.707031 "/>
<path style=" stroke:none;fill-rule:evenodd;fill:rgb(98.039216%,95.686275%,38.431373%);fill-opacity:1;" d="M 183.332031 57.261719 L 183.746094 58.605469 L 185.089844 59.019531 L 183.746094 59.433594 L 183.332031 60.777344 L 182.921875 59.433594 L 181.574219 59.019531 L 182.921875 58.605469 Z M 183.332031 57.261719 "/>
<path style=" stroke:none;fill-rule:evenodd;fill:rgb(98.039216%,95.686275%,38.431373%);fill-opacity:1;" d="M 187.726562 80.988281 L 188.347656 83.003906 L 190.363281 83.621094 L 188.347656 84.242188 L 187.726562 86.257812 L 187.109375 84.242188 L 185.089844 83.621094 L 187.109375 83.003906 Z M 187.726562 80.988281 "/>
</g>
</svg>
