<?xml version="1.0" encoding="UTF-8"?>
<svg xmlns="http://www.w3.org/2000/svg" xmlns:xlink="http://www.w3.org/1999/xlink" width="250px" height="250px" viewBox="0 0 250 250" version="1.1">
<g id="surface1">
<path style=" stroke:none;fill-rule:nonzero;fill:rgb(27.45098%,23.921569%,23.137255%);fill-opacity:1;" d="M 0.4375 249.984375 L 249.753906 249.984375 L 249.753906 0.664062 L 0.4375 0.664062 Z M 0.4375 249.984375 "/>
<path style=" stroke:none;fill-rule:evenodd;fill:rgb(37.254902%,30.980392%,20%);fill-opacity:1;" d="M 184.503906 47.644531 C 185.824219 52.984375 189.445312 57.125 194.671875 59.195312 L 208.292969 64.597656 C 212.730469 66.359375 215.90625 69.5 217.71875 73.917969 C 219.527344 78.339844 219.46875 82.804688 217.542969 87.175781 C 214.84375 93.304688 215.925781 100.183594 220.457031 105.25 L 221.785156 106.730469 C 225.300781 110.652344 225.457031 116.4375 222.148438 120.539062 C 221.605469 121.21875 221.132812 121.976562 220.742188 122.8125 C 219.382812 125.714844 219.351562 128.753906 220.660156 131.683594 C 223.683594 138.457031 221.976562 146.453125 216.175781 151.410156 C 211.339844 155.546875 209.269531 161.941406 210.742188 168.101562 C 212.355469 174.835938 209.933594 181.5 204.378906 185.632812 C 200.804688 188.292969 198.324219 192.316406 197.683594 196.882812 C 196.511719 205.292969 189.441406 211.457031 180.949219 211.472656 C 174.644531 211.488281 168.8125 215.046875 165.925781 220.660156 C 162.625 227.078125 156.011719 230.589844 148.847656 229.730469 C 147.308594 229.542969 145.710938 229.574219 144.078125 229.824219 C 142.394531 230.082031 140.816406 230.558594 139.363281 231.230469 C 132.40625 234.449219 124.464844 232.738281 119.441406 226.941406 L 117.242188 224.402344 C 112.929688 219.421875 106.589844 217.445312 100.207031 219.089844 L 95.257812 220.367188 C 87.441406 222.386719 79.492188 218.765625 75.878906 211.546875 C 73.113281 206.019531 67.433594 202.285156 60.886719 202.222656 L 56.679688 202.183594 C 47.722656 202.097656 40.40625 195.101562 39.921875 186.160156 C 39.613281 180.445312 36.410156 175.050781 31.03125 172.152344 L 29.621094 171.394531 C 23.089844 167.878906 19.691406 160.890625 20.957031 153.582031 C 21.183594 152.300781 21.257812 150.964844 21.183594 149.597656 C 21.039062 146.851562 20.3125 144.332031 19.050781 142.113281 C 15.769531 136.324219 16.066406 129.601562 19.851562 124.128906 C 20.921875 122.578125 21.738281 120.816406 22.277344 118.871094 C 22.957031 116.398438 23.097656 113.949219 22.71875 111.597656 C 21.769531 105.757812 23.683594 100.289062 28.074219 96.320312 C 32.007812 92.761719 34.199219 87.414062 33.535156 81.769531 L 33.382812 80.464844 C 32.722656 74.871094 34.628906 69.761719 38.796875 65.964844 C 41.210938 63.761719 43.996094 62.359375 46.980469 61.796875 C 54.273438 60.421875 59.632812 54.789062 60.632812 47.433594 C 61.355469 42.136719 64.207031 37.851562 68.839844 35.132812 C 73.476562 32.414062 78.613281 32.011719 83.59375 33.972656 C 90.171875 36.566406 97.28125 34.972656 102.128906 29.828125 C 105.21875 26.550781 109.269531 24.757812 113.929688 24.640625 C 118.058594 24.542969 121.78125 25.777344 124.832031 28.234375 C 130.117188 32.488281 136.96875 33.226562 143.035156 30.195312 C 145.648438 28.886719 148.597656 28.308594 151.734375 28.523438 C 156.847656 28.871094 161.179688 31.234375 164.144531 35.257812 C 166.378906 38.292969 169.929688 39.804688 173.445312 39.570312 C 178.644531 39.230469 183.25 42.589844 184.503906 47.644531 "/>
<path style=" stroke:none;fill-rule:evenodd;fill:rgb(47.45098%,39.607843%,22.745098%);fill-opacity:1;" d="M 157.40625 43.347656 C 159.820312 47.640625 163.933594 50.347656 168.933594 50.886719 L 181.976562 52.304688 C 186.226562 52.761719 189.714844 54.714844 192.332031 58.097656 C 194.949219 61.476562 195.964844 65.347656 195.34375 69.578125 C 194.476562 75.507812 197.046875 81.1875 202.171875 84.476562 L 203.667969 85.441406 C 207.640625 87.984375 209.148438 92.941406 207.277344 97.269531 C 206.964844 97.980469 206.742188 98.75 206.601562 99.5625 C 206.121094 102.394531 206.820312 105.023438 208.648438 107.238281 C 212.871094 112.363281 213.304688 119.667969 209.480469 125.328125 C 206.296875 130.050781 206.039062 136.066406 208.777344 141.027344 C 211.769531 146.457031 211.273438 152.78125 207.460938 157.671875 C 205.011719 160.816406 203.835938 164.882812 204.371094 168.972656 C 205.363281 176.511719 200.730469 183.519531 193.410156 185.558594 C 187.976562 187.074219 183.792969 191.535156 182.636719 197.070312 C 181.316406 203.390625 176.453125 207.996094 170.066406 208.964844 C 168.691406 209.171875 167.316406 209.582031 165.972656 210.183594 C 164.582031 210.808594 163.332031 211.59375 162.238281 212.523438 C 157.003906 216.960938 149.738281 217.378906 144.03125 213.578125 L 141.523438 211.90625 C 136.613281 208.640625 130.671875 208.445312 125.558594 211.386719 L 121.589844 213.667969 C 115.324219 217.277344 107.605469 216.042969 102.761719 210.679688 C 99.058594 206.570312 93.269531 204.699219 87.605469 206.207031 L 83.964844 207.175781 C 76.222656 209.242188 68.230469 204.949219 65.683594 197.347656 C 64.054688 192.488281 60.003906 188.601562 54.671875 187.382812 L 53.269531 187.0625 C 46.800781 185.585938 42.199219 180.371094 41.550781 173.761719 C 41.4375 172.605469 41.1875 171.433594 40.792969 170.265625 C 40.015625 167.933594 38.789062 165.929688 37.175781 164.316406 C 32.957031 160.105469 31.613281 154.238281 33.570312 148.609375 C 34.125 147.015625 34.410156 145.300781 34.410156 143.492188 C 34.40625 141.199219 33.945312 139.050781 33.058594 137.113281 C 30.847656 132.300781 31.195312 127.125 34.035156 122.652344 C 36.582031 118.644531 37.199219 113.507812 35.28125 108.796875 L 34.832031 107.707031 C 32.933594 103.035156 33.355469 98.175781 36.046875 93.902344 C 37.605469 91.425781 39.675781 89.550781 42.121094 88.355469 C 48.082031 85.429688 51.359375 79.289062 50.46875 72.707031 C 49.828125 67.960938 51.273438 63.582031 54.621094 60.132812 C 57.972656 56.683594 62.308594 55.109375 67.074219 55.613281 C 73.367188 56.28125 79.121094 53.214844 82.078125 47.617188 C 83.960938 44.050781 87.03125 41.539062 91.027344 40.328125 C 94.5625 39.253906 98.070312 39.4375 101.292969 40.832031 C 106.863281 43.238281 112.953125 42.238281 117.460938 38.175781 C 119.40625 36.425781 121.8125 35.222656 124.574219 34.660156 C 129.066406 33.738281 133.367188 34.746094 136.886719 37.511719 C 139.539062 39.597656 142.960938 40.054688 145.941406 39.015625 C 150.34375 37.480469 155.117188 39.28125 157.40625 43.347656 "/>
<path style=" stroke:none;fill-rule:evenodd;fill:rgb(68.235294%,56.470588%,28.627451%);fill-opacity:1;" d="M 139.4375 48.363281 C 142.234375 51.695312 146.246094 53.378906 150.679688 53.035156 L 162.238281 52.136719 C 166.007812 51.847656 169.359375 52.972656 172.179688 55.484375 C 175.007812 57.996094 176.515625 61.191406 176.667969 64.96875 C 176.878906 70.261719 180.039062 74.777344 185.027344 76.800781 L 186.484375 77.394531 C 190.347656 78.957031 192.46875 83.015625 191.542969 87.082031 C 191.390625 87.75 191.320312 88.453125 191.332031 89.1875 C 191.378906 91.722656 192.410156 93.890625 194.359375 95.519531 C 198.863281 99.285156 200.429688 105.558594 198.03125 111.101562 C 196.035156 115.71875 196.785156 120.988281 199.976562 124.855469 C 203.460938 129.078125 204.058594 134.65625 201.546875 139.523438 C 199.929688 142.660156 199.566406 146.378906 200.703125 149.847656 C 202.792969 156.234375 199.910156 163.074219 193.878906 166.042969 C 189.402344 168.242188 186.496094 172.800781 186.394531 177.796875 C 186.277344 183.503906 182.800781 188.296875 177.410156 190.179688 C 176.25 190.582031 175.128906 191.160156 174.054688 191.902344 C 172.949219 192.671875 171.992188 193.558594 171.191406 194.542969 C 167.367188 199.25 161.125 200.796875 155.542969 198.425781 L 153.097656 197.382812 C 148.296875 195.339844 143.101562 196.144531 139.140625 199.53125 L 136.066406 202.160156 C 131.210938 206.3125 124.304688 206.503906 119.226562 202.628906 C 115.335938 199.660156 110.003906 198.980469 105.328125 201.214844 L 102.324219 202.648438 C 95.929688 205.707031 88.292969 203.273438 84.839844 197.085938 C 82.632812 193.136719 78.480469 190.414062 73.648438 190.222656 L 72.382812 190.175781 C 66.515625 189.949219 61.671875 186.160156 60.03125 180.53125 C 59.746094 179.542969 59.335938 178.566406 58.804688 177.613281 C 57.746094 175.714844 56.355469 174.175781 54.691406 173.035156 C 50.34375 170.066406 48.21875 165.183594 49.003906 159.976562 C 49.226562 158.503906 49.191406 156.964844 48.898438 155.398438 C 48.523438 153.40625 47.773438 151.613281 46.683594 150.074219 C 43.976562 146.253906 43.4375 141.703125 45.179688 137.355469 C 46.738281 133.453125 46.433594 128.894531 44 125.109375 L 43.4375 124.238281 C 41.023438 120.488281 40.601562 116.199219 42.242188 112.046875 C 43.191406 109.644531 44.683594 107.679688 46.613281 106.238281 C 51.316406 102.726562 53.164062 96.859375 51.316406 91.285156 C 49.988281 87.269531 50.53125 83.230469 52.878906 79.6875 C 55.226562 76.144531 58.738281 74.070312 62.957031 73.734375 C 68.535156 73.289062 73.035156 69.683594 74.691406 64.339844 C 75.75 60.933594 78.003906 58.253906 81.277344 56.550781 C 84.175781 55.042969 87.253906 54.628906 90.28125 55.3125 C 95.511719 56.496094 100.636719 54.636719 103.894531 50.378906 C 105.296875 48.539062 107.195312 47.101562 109.5 46.160156 C 113.253906 44.632812 117.152344 44.804688 120.660156 46.632812 C 123.300781 48.015625 126.355469 47.855469 128.769531 46.46875 C 132.347656 44.414062 136.785156 45.203125 139.4375 48.363281 "/>
<path style=" stroke:none;fill-rule:evenodd;fill:rgb(98.039216%,70.588235%,3.921569%);fill-opacity:1;" d="M 125.09375 192.871094 C 162.296875 192.871094 192.640625 162.527344 192.640625 125.324219 C 192.640625 88.121094 162.296875 57.777344 125.09375 57.777344 C 87.890625 57.777344 57.550781 88.121094 57.550781 125.324219 C 57.550781 162.527344 87.890625 192.871094 125.09375 192.871094 "/>
<path style=" stroke:none;fill-rule:evenodd;fill:rgb(98.431373%,79.215686%,2.745098%);fill-opacity:1;" d="M 125.09375 57.777344 C 146.898438 57.777344 166.285156 68.113281 178.636719 84.148438 C 181.121094 91.183594 182.480469 98.761719 182.480469 106.652344 C 182.480469 143.957031 152.238281 174.199219 114.933594 174.199219 C 93.132812 174.199219 73.742188 163.867188 61.394531 147.832031 C 58.90625 140.792969 57.550781 133.214844 57.550781 125.324219 C 57.550781 88.019531 87.789062 57.777344 125.09375 57.777344 "/>
<path style=" stroke:none;fill-rule:evenodd;fill:rgb(97.647059%,87.058824%,10.980392%);fill-opacity:1;" d="M 114.449219 64.050781 C 135.039062 64.050781 146.9375 80.738281 141.027344 101.328125 C 135.117188 121.914062 113.636719 138.605469 93.050781 138.605469 C 72.460938 138.605469 60.5625 121.914062 66.472656 101.328125 C 72.382812 80.738281 93.863281 64.050781 114.449219 64.050781 "/>
<path style=" stroke:none;fill-rule:evenodd;fill:rgb(98.039216%,70.588235%,3.921569%);fill-opacity:1;" d="M 130.597656 188.53125 C 143.074219 188.53125 153.253906 180.640625 153.253906 170.960938 C 153.253906 161.28125 143.074219 153.386719 130.597656 153.386719 C 118.121094 153.386719 107.945312 161.28125 107.945312 170.960938 C 107.945312 180.640625 118.121094 188.53125 130.597656 188.53125 "/>
<path style=" stroke:none;fill-rule:evenodd;fill:rgb(95.294118%,61.176471%,5.882353%);fill-opacity:1;" d="M 130.597656 177.402344 C 137.707031 177.402344 143.503906 172.90625 143.503906 167.390625 C 143.503906 161.878906 137.707031 157.378906 130.597656 157.378906 C 123.488281 157.378906 117.691406 161.878906 117.691406 167.390625 C 117.691406 172.90625 123.488281 177.402344 130.597656 177.402344 "/>
<path style=" stroke:none;fill-rule:evenodd;fill:rgb(98.039216%,70.588235%,3.921569%);fill-opacity:1;" d="M 154.308594 82.761719 C 161.28125 79.390625 170.453125 83.941406 174.792969 92.925781 C 179.132812 101.910156 177.003906 111.925781 170.03125 115.292969 C 163.0625 118.660156 153.890625 114.109375 149.550781 105.128906 C 145.207031 96.144531 147.339844 86.128906 154.308594 82.761719 "/>
<path style=" stroke:none;fill-rule:evenodd;fill:rgb(95.294118%,61.176471%,5.882353%);fill-opacity:1;" d="M 155.160156 87.359375 C 160.160156 84.945312 166.738281 88.207031 169.855469 94.652344 C 172.964844 101.09375 171.433594 108.273438 166.433594 110.691406 C 161.433594 113.109375 154.859375 109.84375 151.746094 103.402344 C 148.632812 96.957031 150.164062 89.777344 155.160156 87.359375 "/>
<path style=" stroke:none;fill-rule:evenodd;fill:rgb(87.45098%,54.901961%,8.627451%);fill-opacity:1;" d="M 155.664062 91.652344 C 159 90.042969 163.386719 92.21875 165.464844 96.519531 C 167.542969 100.816406 166.523438 105.609375 163.1875 107.21875 C 159.855469 108.835938 155.464844 106.652344 153.386719 102.355469 C 151.308594 98.058594 152.332031 93.269531 155.664062 91.652344 "/>
<path style=" stroke:none;fill-rule:evenodd;fill:rgb(87.45098%,54.901961%,8.627451%);fill-opacity:1;" d="M 130.597656 171.589844 C 135.140625 171.589844 138.84375 168.71875 138.84375 165.195312 C 138.84375 161.667969 135.140625 158.796875 130.597656 158.796875 C 126.054688 158.796875 122.351562 161.667969 122.351562 165.195312 C 122.351562 168.71875 126.054688 171.589844 130.597656 171.589844 "/>
<path style=" stroke:none;fill-rule:evenodd;fill:rgb(98.039216%,70.588235%,3.921569%);fill-opacity:1;" d="M 86.59375 129.332031 C 92.273438 132.800781 94.894531 138.859375 92.441406 142.871094 C 89.996094 146.878906 83.410156 147.316406 77.726562 143.851562 C 72.050781 140.378906 69.433594 134.324219 71.882812 130.3125 C 74.328125 126.304688 80.917969 125.867188 86.59375 129.332031 "/>
<path style=" stroke:none;fill-rule:evenodd;fill:rgb(95.294118%,61.176471%,5.882353%);fill-opacity:1;" d="M 86.277344 130.476562 C 89.878906 132.675781 91.542969 136.519531 89.988281 139.0625 C 88.433594 141.609375 84.257812 141.886719 80.652344 139.683594 C 77.054688 137.488281 75.390625 133.640625 76.941406 131.097656 C 78.496094 128.554688 82.675781 128.277344 86.277344 130.476562 "/>
<path style=" stroke:none;fill-rule:evenodd;fill:rgb(87.45098%,54.901961%,8.627451%);fill-opacity:1;" d="M 85.675781 131.261719 C 87.535156 132.394531 88.394531 134.386719 87.589844 135.699219 C 86.789062 137.011719 84.628906 137.160156 82.765625 136.019531 C 80.90625 134.882812 80.050781 132.894531 80.847656 131.582031 C 81.652344 130.265625 83.8125 130.125 85.675781 131.261719 "/>
<path style=" stroke:none;fill-rule:evenodd;fill:rgb(98.039216%,70.588235%,3.921569%);fill-opacity:1;" d="M 112.867188 102.617188 C 103.671875 109.324219 92.382812 109.5 87.648438 103.011719 C 82.914062 96.519531 86.53125 85.820312 95.722656 79.113281 C 104.914062 72.410156 116.203125 72.234375 120.941406 78.722656 C 125.675781 85.214844 122.058594 95.910156 112.867188 102.617188 "/>
<path style=" stroke:none;fill-rule:evenodd;fill:rgb(95.294118%,61.176471%,5.882353%);fill-opacity:1;" d="M 111.265625 101.371094 C 105.433594 105.625 98.269531 105.734375 95.265625 101.617188 C 92.265625 97.503906 94.558594 90.714844 100.390625 86.460938 C 106.222656 82.207031 113.386719 82.097656 116.386719 86.210938 C 119.390625 90.328125 117.097656 97.117188 111.265625 101.371094 "/>
<path style=" stroke:none;fill-rule:evenodd;fill:rgb(87.45098%,54.901961%,8.627451%);fill-opacity:1;" d="M 110.421875 99.902344 C 107.410156 102.101562 103.707031 102.160156 102.15625 100.03125 C 100.601562 97.902344 101.785156 94.398438 104.800781 92.199219 C 107.816406 90 111.515625 89.941406 113.070312 92.070312 C 114.621094 94.195312 113.4375 97.707031 110.421875 99.902344 "/>
<path style=" stroke:none;fill-rule:evenodd;fill:rgb(98.039216%,70.588235%,3.921569%);fill-opacity:1;" d="M 166.113281 131.105469 C 168.6875 126.277344 173.539062 123.839844 176.945312 125.652344 C 180.355469 127.472656 181.03125 132.863281 178.457031 137.6875 C 175.882812 142.515625 171.03125 144.957031 167.625 143.140625 C 164.214844 141.320312 163.539062 135.933594 166.113281 131.105469 "/>
<path style=" stroke:none;fill-rule:evenodd;fill:rgb(95.294118%,61.176471%,5.882353%);fill-opacity:1;" d="M 167.066406 131.3125 C 168.699219 128.25 171.777344 126.699219 173.941406 127.855469 C 176.105469 129.007812 176.535156 132.425781 174.898438 135.488281 C 173.265625 138.546875 170.1875 140.097656 168.027344 138.945312 C 165.863281 137.792969 165.4375 134.375 167.066406 131.3125 "/>
<path style=" stroke:none;fill-rule:evenodd;fill:rgb(87.45098%,54.901961%,8.627451%);fill-opacity:1;" d="M 167.742188 131.769531 C 168.582031 130.183594 170.175781 129.386719 171.292969 129.980469 C 172.410156 130.578125 172.628906 132.34375 171.785156 133.925781 C 170.945312 135.511719 169.351562 136.3125 168.234375 135.714844 C 167.117188 135.121094 166.898438 133.351562 167.742188 131.769531 "/>
<path style=" stroke:none;fill-rule:evenodd;fill:rgb(98.039216%,95.686275%,38.431373%);fill-opacity:1;" d="M 22.957031 16.664062 L 24.054688 20.234375 L 27.628906 21.332031 L 24.054688 22.425781 L 22.957031 26 L 21.863281 22.425781 L 18.292969 21.332031 L 21.863281 20.234375 Z M 22.957031 16.664062 "/>
<path style=" stroke:none;fill-rule:evenodd;fill:rgb(98.039216%,95.686275%,38.431373%);fill-opacity:1;" d="M 54.261719 13.917969 L 54.839844 15.808594 L 56.730469 16.386719 L 54.839844 16.96875 L 54.261719 18.855469 L 53.683594 16.96875 L 51.789062 16.386719 L 53.683594 15.808594 Z M 54.261719 13.917969 "/>
<path style=" stroke:none;fill-rule:evenodd;fill:rgb(98.039216%,95.686275%,38.431373%);fill-opacity:1;" d="M 179.195312 18.855469 L 179.710938 20.539062 L 181.390625 21.054688 L 179.710938 21.574219 L 179.195312 23.253906 L 178.679688 21.574219 L 177 21.054688 L 178.679688 20.539062 Z M 179.195312 18.855469 "/>
<path style=" stroke:none;fill-rule:evenodd;fill:rgb(98.039216%,95.686275%,38.431373%);fill-opacity:1;" d="M 216.261719 22.152344 L 216.972656 24.464844 L 219.285156 25.175781 L 216.972656 25.886719 L 216.261719 28.195312 L 215.554688 25.886719 L 213.242188 25.175781 L 215.554688 24.464844 Z M 216.261719 22.152344 "/>
<path style=" stroke:none;fill-rule:evenodd;fill:rgb(98.039216%,95.686275%,38.431373%);fill-opacity:1;" d="M 225.050781 198.433594 L 226.144531 202.003906 L 229.714844 203.101562 L 226.144531 204.199219 L 225.050781 207.769531 L 223.953125 204.199219 L 220.378906 203.101562 L 223.953125 202.003906 Z M 225.050781 198.433594 "/>
<path style=" stroke:none;fill-rule:evenodd;fill:rgb(98.039216%,95.686275%,38.431373%);fill-opacity:1;" d="M 209.398438 226.441406 L 210.429688 229.800781 L 213.792969 230.832031 L 210.429688 231.867188 L 209.398438 235.226562 L 208.367188 231.867188 L 205.003906 230.832031 L 208.367188 229.800781 Z M 209.398438 226.441406 "/>
<path style=" stroke:none;fill-rule:evenodd;fill:rgb(98.039216%,95.686275%,38.431373%);fill-opacity:1;" d="M 35.039062 220.949219 L 36.652344 226.199219 L 41.902344 227.816406 L 36.652344 229.425781 L 35.039062 234.675781 L 33.425781 229.425781 L 28.175781 227.816406 L 33.425781 226.199219 Z M 35.039062 220.949219 "/>
<path style=" stroke:none;fill-rule:evenodd;fill:rgb(98.039216%,95.686275%,38.431373%);fill-opacity:1;" d="M 75.953125 225.890625 L 76.597656 227.996094 L 78.699219 228.640625 L 76.597656 229.285156 L 75.953125 231.382812 L 75.308594 229.285156 L 73.207031 228.640625 L 75.308594 227.996094 Z M 75.953125 225.890625 "/>
<path style=" stroke:none;fill-rule:evenodd;fill:rgb(98.039216%,95.686275%,38.431373%);fill-opacity:1;" d="M 17.742188 183.058594 L 18.386719 185.160156 L 20.488281 185.804688 L 18.386719 186.449219 L 17.742188 188.546875 L 17.097656 186.449219 L 14.996094 185.804688 L 17.097656 185.160156 Z M 17.742188 183.058594 "/>
<path style=" stroke:none;fill-rule:evenodd;fill:rgb(98.039216%,95.686275%,38.431373%);fill-opacity:1;" d="M 14.996094 70.480469 L 15.640625 72.582031 L 17.742188 73.226562 L 15.640625 73.871094 L 14.996094 75.96875 L 14.347656 73.871094 L 12.25 73.226562 L 14.347656 72.582031 Z M 14.996094 70.480469 "/>
<path style=" stroke:none;fill-rule:evenodd;fill:rgb(98.039216%,95.686275%,38.431373%);fill-opacity:1;" d="M 40.53125 35.882812 L 41.371094 38.613281 L 44.101562 39.453125 L 41.371094 40.292969 L 40.53125 43.019531 L 39.695312 40.292969 L 36.964844 39.453125 L 39.695312 38.613281 Z M 40.53125 35.882812 "/>
<path style=" stroke:none;fill-rule:evenodd;fill:rgb(98.039216%,95.686275%,38.431373%);fill-opacity:1;" d="M 229.167969 71.578125 L 229.683594 73.257812 L 231.363281 73.777344 L 229.683594 74.289062 L 229.167969 75.96875 L 228.652344 74.289062 L 226.96875 73.777344 L 228.652344 73.257812 Z M 229.167969 71.578125 "/>
<path style=" stroke:none;fill-rule:evenodd;fill:rgb(98.039216%,95.686275%,38.431373%);fill-opacity:1;" d="M 234.660156 101.234375 L 235.433594 103.753906 L 237.957031 104.527344 L 235.433594 105.300781 L 234.660156 107.824219 L 233.886719 105.300781 L 231.363281 104.527344 L 233.886719 103.753906 Z M 234.660156 101.234375 "/>
</g>
</svg>
