<?xml version="1.0" encoding="UTF-8"?>
<svg xmlns="http://www.w3.org/2000/svg" xmlns:xlink="http://www.w3.org/1999/xlink" width="250px" height="150px" viewBox="0 0 250 150" version="1.1">
<g id="surface1">
<path style=" stroke:none;fill-rule:nonzero;fill:rgb(27.45098%,23.921569%,23.137255%);fill-opacity:1;" d="M 0.4375 149.992188 L 249.753906 149.992188 L 249.753906 0.398438 L 0.4375 0.398438 Z M 0.4375 149.992188 "/>
<path style=" stroke:none;fill-rule:evenodd;fill:rgb(37.254902%,30.980392%,20%);fill-opacity:1;" d="M 184.503906 28.585938 C 185.824219 31.789062 189.445312 34.273438 194.671875 35.515625 L 208.292969 38.757812 C 212.730469 39.816406 215.90625 41.699219 217.71875 44.351562 C 219.527344 47.003906 219.46875 49.683594 217.542969 52.304688 C 214.84375 55.984375 215.925781 60.109375 220.457031 63.148438 L 221.785156 64.039062 C 225.300781 66.390625 225.457031 69.863281 222.148438 72.324219 C 221.605469 72.730469 221.132812 73.1875 220.742188 73.6875 C 219.382812 75.429688 219.351562 77.25 220.660156 79.007812 C 223.683594 83.074219 221.976562 87.871094 216.175781 90.84375 C 211.339844 93.328125 209.269531 97.164062 210.742188 100.859375 C 212.355469 104.902344 209.933594 108.898438 204.378906 111.378906 C 200.804688 112.976562 198.324219 115.390625 197.683594 118.128906 C 196.511719 123.175781 189.441406 126.875 180.949219 126.882812 C 174.644531 126.890625 168.8125 129.027344 165.925781 132.398438 C 162.625 136.246094 156.011719 138.351562 148.847656 137.835938 C 147.308594 137.726562 145.710938 137.742188 144.078125 137.894531 C 142.394531 138.046875 140.816406 138.335938 139.363281 138.738281 C 132.40625 140.671875 124.464844 139.640625 119.441406 136.164062 L 117.242188 134.640625 C 112.929688 131.652344 106.589844 130.46875 100.207031 131.453125 L 95.257812 132.21875 C 87.441406 133.429688 79.492188 131.257812 75.878906 126.929688 C 73.113281 123.609375 67.433594 121.371094 60.886719 121.335938 L 56.679688 121.3125 C 47.722656 121.257812 40.40625 117.0625 39.921875 111.695312 C 39.613281 108.265625 36.410156 105.03125 31.03125 103.289062 L 29.621094 102.835938 C 23.089844 100.726562 19.691406 96.535156 20.957031 92.148438 C 21.183594 91.382812 21.257812 90.578125 21.183594 89.757812 C 21.039062 88.109375 20.3125 86.601562 19.050781 85.265625 C 15.769531 81.796875 16.066406 77.761719 19.851562 74.476562 C 20.921875 73.546875 21.738281 72.492188 22.277344 71.320312 C 22.957031 69.839844 23.097656 68.367188 22.71875 66.960938 C 21.769531 63.453125 23.683594 60.171875 28.074219 57.792969 C 32.007812 55.65625 34.199219 52.449219 33.535156 49.0625 L 33.382812 48.28125 C 32.722656 44.921875 34.628906 41.859375 38.796875 39.578125 C 41.210938 38.257812 43.996094 37.414062 46.980469 37.078125 C 54.273438 36.253906 59.632812 32.875 60.632812 28.460938 C 61.355469 25.28125 64.207031 22.710938 68.839844 21.078125 C 73.476562 19.449219 78.613281 19.207031 83.59375 20.382812 C 90.171875 21.9375 97.28125 20.984375 102.128906 17.898438 C 105.21875 15.929688 109.269531 14.855469 113.929688 14.785156 C 118.058594 14.726562 121.78125 15.46875 124.832031 16.941406 C 130.117188 19.492188 136.96875 19.9375 143.035156 18.117188 C 145.648438 17.332031 148.597656 16.984375 151.734375 17.113281 C 156.847656 17.320312 161.179688 18.742188 164.144531 21.15625 C 166.378906 22.976562 169.929688 23.882812 173.445312 23.742188 C 178.644531 23.539062 183.25 25.554688 184.503906 28.585938 "/>
<path style=" stroke:none;fill-rule:evenodd;fill:rgb(47.45098%,39.607843%,22.745098%);fill-opacity:1;" d="M 157.40625 26.007812 C 159.820312 28.585938 163.933594 30.210938 168.933594 30.53125 L 181.976562 31.382812 C 186.226562 31.65625 189.714844 32.828125 192.332031 34.859375 C 194.949219 36.886719 195.964844 39.210938 195.34375 41.746094 C 194.476562 45.304688 197.046875 48.710938 202.171875 50.6875 L 203.667969 51.265625 C 207.640625 52.789062 209.148438 55.765625 207.277344 58.359375 C 206.964844 58.789062 206.742188 59.25 206.601562 59.738281 C 206.121094 61.4375 206.820312 63.015625 208.648438 64.34375 C 212.871094 67.417969 213.304688 71.800781 209.480469 75.195312 C 206.296875 78.03125 206.039062 81.640625 208.777344 84.617188 C 211.769531 87.875 211.273438 91.667969 207.460938 94.601562 C 205.011719 96.492188 203.835938 98.929688 204.371094 101.382812 C 205.363281 105.90625 200.730469 110.109375 193.410156 111.335938 C 187.976562 112.242188 183.792969 114.921875 182.636719 118.242188 C 181.316406 122.035156 176.453125 124.796875 170.066406 125.378906 C 168.691406 125.503906 167.316406 125.75 165.972656 126.109375 C 164.582031 126.484375 163.332031 126.957031 162.238281 127.515625 C 157.003906 130.175781 149.738281 130.429688 144.03125 128.148438 L 141.523438 127.144531 C 136.613281 125.183594 130.671875 125.066406 125.558594 126.832031 L 121.589844 128.203125 C 115.324219 130.367188 107.605469 129.625 102.761719 126.40625 C 99.058594 123.941406 93.269531 122.820312 87.605469 123.726562 L 83.964844 124.304688 C 76.222656 125.546875 68.230469 122.96875 65.683594 118.40625 C 64.054688 115.492188 60.003906 113.160156 54.671875 112.429688 L 53.269531 112.238281 C 46.800781 111.351562 42.199219 108.222656 41.550781 104.257812 C 41.4375 103.5625 41.1875 102.859375 40.792969 102.160156 C 40.015625 100.757812 38.789062 99.558594 37.175781 98.589844 C 32.957031 96.0625 31.613281 92.542969 33.570312 89.164062 C 34.125 88.210938 34.410156 87.179688 34.410156 86.09375 C 34.40625 84.71875 33.945312 83.429688 33.058594 82.265625 C 30.847656 79.382812 31.195312 76.273438 34.035156 73.59375 C 36.582031 71.1875 37.199219 68.105469 35.28125 65.277344 L 34.832031 64.625 C 32.933594 61.820312 33.355469 58.90625 36.046875 56.34375 C 37.605469 54.855469 39.675781 53.730469 42.121094 53.015625 C 48.082031 51.257812 51.359375 47.574219 50.46875 43.625 C 49.828125 40.777344 51.273438 38.148438 54.621094 36.078125 C 57.972656 34.007812 62.308594 33.066406 67.074219 33.367188 C 73.367188 33.769531 79.121094 31.929688 82.078125 28.570312 C 83.960938 26.429688 87.03125 24.921875 91.027344 24.195312 C 94.5625 23.554688 98.070312 23.664062 101.292969 24.5 C 106.863281 25.945312 112.953125 25.34375 117.460938 22.90625 C 119.40625 21.855469 121.8125 21.132812 124.574219 20.796875 C 129.066406 20.242188 133.367188 20.847656 136.886719 22.507812 C 139.539062 23.757812 142.960938 24.03125 145.941406 23.410156 C 150.34375 22.488281 155.117188 23.570312 157.40625 26.007812 "/>
<path style=" stroke:none;fill-rule:evenodd;fill:rgb(68.235294%,56.470588%,28.627451%);fill-opacity:1;" d="M 139.4375 29.015625 C 142.234375 31.015625 146.246094 32.027344 150.679688 31.820312 L 162.238281 31.28125 C 166.007812 31.109375 169.359375 31.78125 172.179688 33.289062 C 175.007812 34.796875 176.515625 36.714844 176.667969 38.980469 C 176.878906 42.15625 180.039062 44.867188 185.027344 46.078125 L 186.484375 46.4375 C 190.347656 47.375 192.46875 49.808594 191.542969 52.25 C 191.390625 52.648438 191.320312 53.070312 191.332031 53.511719 C 191.378906 55.03125 192.410156 56.335938 194.359375 57.3125 C 198.863281 59.570312 200.429688 63.335938 198.03125 66.660156 C 196.035156 69.429688 196.785156 72.59375 199.976562 74.914062 C 203.460938 77.445312 204.058594 80.792969 201.546875 83.714844 C 199.929688 85.59375 199.566406 87.828125 200.703125 89.90625 C 202.792969 93.742188 199.910156 97.84375 193.878906 99.625 C 189.402344 100.945312 186.496094 103.679688 186.394531 106.679688 C 186.277344 110.101562 182.800781 112.976562 177.410156 114.109375 C 176.25 114.351562 175.128906 114.695312 174.054688 115.140625 C 172.949219 115.601562 171.992188 116.132812 171.191406 116.726562 C 167.367188 119.550781 161.125 120.476562 155.542969 119.054688 L 153.097656 118.429688 C 148.296875 117.203125 143.101562 117.6875 139.140625 119.71875 L 136.066406 121.296875 C 131.210938 123.789062 124.304688 123.902344 119.226562 121.578125 C 115.335938 119.796875 110.003906 119.390625 105.328125 120.726562 L 102.324219 121.589844 C 95.929688 123.421875 88.292969 121.964844 84.839844 118.25 C 82.632812 115.882812 78.480469 114.25 73.648438 114.132812 L 72.382812 114.105469 C 66.515625 113.96875 61.671875 111.695312 60.03125 108.320312 C 59.746094 107.726562 59.335938 107.140625 58.804688 106.570312 C 57.746094 105.429688 56.355469 104.507812 54.691406 103.820312 C 50.34375 102.039062 48.21875 99.109375 49.003906 95.984375 C 49.226562 95.101562 49.191406 94.179688 48.898438 93.238281 C 48.523438 92.042969 47.773438 90.96875 46.683594 90.046875 C 43.976562 87.75 43.4375 85.023438 45.179688 82.414062 C 46.738281 80.070312 46.433594 77.335938 44 75.066406 L 43.4375 74.542969 C 41.023438 72.292969 40.601562 69.71875 42.242188 67.226562 C 43.191406 65.789062 44.683594 64.609375 46.613281 63.742188 C 51.316406 61.636719 53.164062 58.117188 51.316406 54.773438 C 49.988281 52.359375 50.53125 49.9375 52.878906 47.8125 C 55.226562 45.6875 58.738281 44.441406 62.957031 44.242188 C 68.535156 43.972656 73.035156 41.8125 74.691406 38.601562 C 75.75 36.5625 78.003906 34.953125 81.277344 33.929688 C 84.175781 33.023438 87.253906 32.777344 90.28125 33.1875 C 95.511719 33.898438 100.636719 32.78125 103.894531 30.226562 C 105.296875 29.125 107.195312 28.261719 109.5 27.695312 C 113.253906 26.78125 117.152344 26.882812 120.660156 27.980469 C 123.300781 28.808594 126.355469 28.710938 128.769531 27.882812 C 132.347656 26.648438 136.785156 27.121094 139.4375 29.015625 "/>
<path style=" stroke:none;fill-rule:evenodd;fill:rgb(98.039216%,70.588235%,3.921569%);fill-opacity:1;" d="M 125.09375 115.722656 C 162.296875 115.722656 192.640625 97.515625 192.640625 75.195312 C 192.640625 52.875 162.296875 34.664062 125.09375 34.664062 C 87.890625 34.664062 57.550781 52.875 57.550781 75.195312 C 57.550781 97.515625 87.890625 115.722656 125.09375 115.722656 "/>
<path style=" stroke:none;fill-rule:evenodd;fill:rgb(98.431373%,79.215686%,2.745098%);fill-opacity:1;" d="M 125.09375 34.664062 C 146.898438 34.664062 166.285156 40.867188 178.636719 50.488281 C 181.121094 54.710938 182.480469 59.257812 182.480469 63.992188 C 182.480469 86.375 152.238281 104.519531 114.933594 104.519531 C 93.132812 104.519531 73.742188 98.320312 61.394531 88.699219 C 58.90625 84.476562 57.550781 79.929688 57.550781 75.195312 C 57.550781 52.8125 87.789062 34.664062 125.09375 34.664062 "/>
<path style=" stroke:none;fill-rule:evenodd;fill:rgb(97.647059%,87.058824%,10.980392%);fill-opacity:1;" d="M 114.449219 38.429688 C 135.039062 38.429688 146.9375 48.445312 141.027344 60.796875 C 135.117188 73.148438 113.636719 83.164062 93.050781 83.164062 C 72.460938 83.164062 60.5625 73.148438 66.472656 60.796875 C 72.382812 48.445312 93.863281 38.429688 114.449219 38.429688 "/>
<path style=" stroke:none;fill-rule:evenodd;fill:rgb(98.039216%,70.588235%,3.921569%);fill-opacity:1;" d="M 130.597656 113.117188 C 143.074219 113.117188 153.253906 108.382812 153.253906 102.578125 C 153.253906 96.769531 143.074219 92.03125 130.597656 92.03125 C 118.121094 92.03125 107.945312 96.769531 107.945312 102.578125 C 107.945312 108.382812 118.121094 113.117188 130.597656 113.117188 "/>
<path style=" stroke:none;fill-rule:evenodd;fill:rgb(95.294118%,61.176471%,5.882353%);fill-opacity:1;" d="M 130.597656 106.441406 C 137.707031 106.441406 143.503906 103.742188 143.503906 100.433594 C 143.503906 97.125 137.707031 94.429688 130.597656 94.429688 C 123.488281 94.429688 117.691406 97.125 117.691406 100.433594 C 117.691406 103.742188 123.488281 106.441406 130.597656 106.441406 "/>
<path style=" stroke:none;fill-rule:evenodd;fill:rgb(98.039216%,70.588235%,3.921569%);fill-opacity:1;" d="M 154.308594 49.65625 C 161.28125 47.632812 170.453125 50.367188 174.792969 55.757812 C 179.132812 61.148438 177.003906 67.15625 170.03125 69.175781 C 163.0625 71.195312 153.890625 68.464844 149.550781 63.078125 C 145.207031 57.6875 147.339844 51.679688 154.308594 49.65625 "/>
<path style=" stroke:none;fill-rule:evenodd;fill:rgb(95.294118%,61.176471%,5.882353%);fill-opacity:1;" d="M 155.160156 52.414062 C 160.160156 50.96875 166.738281 52.921875 169.855469 56.789062 C 172.964844 60.65625 171.433594 64.964844 166.433594 66.414062 C 161.433594 67.867188 154.859375 65.90625 151.746094 62.039062 C 148.632812 58.171875 150.164062 53.867188 155.160156 52.414062 "/>
<path style=" stroke:none;fill-rule:evenodd;fill:rgb(87.45098%,54.901961%,8.627451%);fill-opacity:1;" d="M 155.664062 54.992188 C 159 54.023438 163.386719 55.332031 165.464844 57.914062 C 167.542969 60.492188 166.523438 63.367188 163.1875 64.332031 C 159.855469 65.300781 155.464844 63.992188 153.386719 61.414062 C 151.308594 58.835938 152.332031 55.960938 155.664062 54.992188 "/>
<path style=" stroke:none;fill-rule:evenodd;fill:rgb(87.45098%,54.901961%,8.627451%);fill-opacity:1;" d="M 130.597656 102.953125 C 135.140625 102.953125 138.84375 101.230469 138.84375 99.117188 C 138.84375 97 135.140625 95.277344 130.597656 95.277344 C 126.054688 95.277344 122.351562 97 122.351562 99.117188 C 122.351562 101.230469 126.054688 102.953125 130.597656 102.953125 "/>
<path style=" stroke:none;fill-rule:evenodd;fill:rgb(98.039216%,70.588235%,3.921569%);fill-opacity:1;" d="M 86.59375 77.601562 C 92.273438 79.679688 94.894531 83.316406 92.441406 85.722656 C 89.996094 88.125 83.410156 88.390625 77.726562 86.3125 C 72.050781 84.226562 69.433594 80.59375 71.882812 78.1875 C 74.328125 75.78125 80.917969 75.519531 86.59375 77.601562 "/>
<path style=" stroke:none;fill-rule:evenodd;fill:rgb(95.294118%,61.176471%,5.882353%);fill-opacity:1;" d="M 86.277344 78.285156 C 89.878906 79.605469 91.542969 81.914062 89.988281 83.4375 C 88.433594 84.964844 84.257812 85.132812 80.652344 83.8125 C 77.054688 82.492188 75.390625 80.183594 76.941406 78.65625 C 78.496094 77.132812 82.675781 76.96875 86.277344 78.285156 "/>
<path style=" stroke:none;fill-rule:evenodd;fill:rgb(87.45098%,54.901961%,8.627451%);fill-opacity:1;" d="M 85.675781 78.757812 C 87.535156 79.4375 88.394531 80.632812 87.589844 81.421875 C 86.789062 82.207031 84.628906 82.296875 82.765625 81.609375 C 80.90625 80.929688 80.050781 79.734375 80.847656 78.949219 C 81.652344 78.160156 83.8125 78.074219 85.675781 78.757812 "/>
<path style=" stroke:none;fill-rule:evenodd;fill:rgb(98.039216%,70.588235%,3.921569%);fill-opacity:1;" d="M 112.867188 61.570312 C 103.671875 65.59375 92.382812 65.699219 87.648438 61.804688 C 82.914062 57.914062 86.53125 51.492188 95.722656 47.46875 C 104.914062 43.445312 116.203125 43.339844 120.941406 47.234375 C 125.675781 51.128906 122.058594 57.546875 112.867188 61.570312 "/>
<path style=" stroke:none;fill-rule:evenodd;fill:rgb(95.294118%,61.176471%,5.882353%);fill-opacity:1;" d="M 111.265625 60.820312 C 105.433594 63.375 98.269531 63.441406 95.265625 60.96875 C 92.265625 58.5 94.558594 54.429688 100.390625 51.875 C 106.222656 49.324219 113.386719 49.257812 116.386719 51.726562 C 119.390625 54.195312 117.097656 58.269531 111.265625 60.820312 "/>
<path style=" stroke:none;fill-rule:evenodd;fill:rgb(87.45098%,54.901961%,8.627451%);fill-opacity:1;" d="M 110.421875 59.941406 C 107.410156 61.261719 103.707031 61.296875 102.15625 60.019531 C 100.601562 58.742188 101.785156 56.640625 104.800781 55.320312 C 107.816406 54 111.515625 53.964844 113.070312 55.242188 C 114.621094 56.515625 113.4375 58.625 110.421875 59.941406 "/>
<path style=" stroke:none;fill-rule:evenodd;fill:rgb(98.039216%,70.588235%,3.921569%);fill-opacity:1;" d="M 166.113281 78.664062 C 168.6875 75.765625 173.539062 74.304688 176.945312 75.390625 C 180.355469 76.484375 181.03125 79.71875 178.457031 82.613281 C 175.882812 85.507812 171.03125 86.976562 167.625 85.882812 C 164.214844 84.792969 163.539062 81.5625 166.113281 78.664062 "/>
<path style=" stroke:none;fill-rule:evenodd;fill:rgb(95.294118%,61.176471%,5.882353%);fill-opacity:1;" d="M 167.066406 78.789062 C 168.699219 76.949219 171.777344 76.019531 173.941406 76.710938 C 176.105469 77.40625 176.535156 79.453125 174.898438 81.292969 C 173.265625 83.128906 170.1875 84.058594 168.027344 83.367188 C 165.863281 82.675781 165.4375 80.625 167.066406 78.789062 "/>
<path style=" stroke:none;fill-rule:evenodd;fill:rgb(87.45098%,54.901961%,8.627451%);fill-opacity:1;" d="M 167.742188 79.0625 C 168.582031 78.109375 170.175781 77.632812 171.292969 77.988281 C 172.410156 78.347656 172.628906 79.40625 171.785156 80.355469 C 170.945312 81.304688 169.351562 81.789062 168.234375 81.429688 C 167.117188 81.070312 166.898438 80.011719 167.742188 79.0625 "/>
<path style=" stroke:none;fill-rule:evenodd;fill:rgb(98.039216%,95.686275%,38.431373%);fill-opacity:1;" d="M 22.957031 10 L 24.054688 12.140625 L 27.628906 12.796875 L 24.054688 13.453125 L 22.957031 15.601562 L 21.863281 13.453125 L 18.292969 12.796875 L 21.863281 12.140625 Z M 22.957031 10 "/>
<path style=" stroke:none;fill-rule:evenodd;fill:rgb(98.039216%,95.686275%,38.431373%);fill-opacity:1;" d="M 54.261719 8.351562 L 54.839844 9.484375 L 56.730469 9.832031 L 54.839844 10.179688 L 54.261719 11.3125 L 53.683594 10.179688 L 51.789062 9.832031 L 53.683594 9.484375 Z M 54.261719 8.351562 "/>
<path style=" stroke:none;fill-rule:evenodd;fill:rgb(98.039216%,95.686275%,38.431373%);fill-opacity:1;" d="M 179.195312 11.3125 L 179.710938 12.324219 L 181.390625 12.632812 L 179.710938 12.945312 L 179.195312 13.953125 L 178.679688 12.945312 L 177 12.632812 L 178.679688 12.324219 Z M 179.195312 11.3125 "/>
<path style=" stroke:none;fill-rule:evenodd;fill:rgb(98.039216%,95.686275%,38.431373%);fill-opacity:1;" d="M 216.261719 13.289062 L 216.972656 14.679688 L 219.285156 15.105469 L 216.972656 15.53125 L 216.261719 16.917969 L 215.554688 15.53125 L 213.242188 15.105469 L 215.554688 14.679688 Z M 216.261719 13.289062 "/>
<path style=" stroke:none;fill-rule:evenodd;fill:rgb(98.039216%,95.686275%,38.431373%);fill-opacity:1;" d="M 225.050781 119.0625 L 226.144531 121.203125 L 229.714844 121.859375 L 226.144531 122.519531 L 225.050781 124.664062 L 223.953125 122.519531 L 220.378906 121.859375 L 223.953125 121.203125 Z M 225.050781 119.0625 "/>
<path style=" stroke:none;fill-rule:evenodd;fill:rgb(98.039216%,95.686275%,38.431373%);fill-opacity:1;" d="M 209.398438 135.867188 L 210.429688 137.882812 L 213.792969 138.5 L 210.429688 139.121094 L 209.398438 141.136719 L 208.367188 139.121094 L 205.003906 138.5 L 208.367188 137.882812 Z M 209.398438 135.867188 "/>
<path style=" stroke:none;fill-rule:evenodd;fill:rgb(98.039216%,95.686275%,38.431373%);fill-opacity:1;" d="M 35.039062 132.570312 L 36.652344 135.71875 L 41.902344 136.6875 L 36.652344 137.65625 L 35.039062 140.804688 L 33.425781 137.65625 L 28.175781 136.6875 L 33.425781 135.71875 Z M 35.039062 132.570312 "/>
<path style=" stroke:none;fill-rule:evenodd;fill:rgb(98.039216%,95.686275%,38.431373%);fill-opacity:1;" d="M 75.953125 135.535156 L 76.597656 136.796875 L 78.699219 137.183594 L 76.597656 137.570312 L 75.953125 138.828125 L 75.308594 137.570312 L 73.207031 137.183594 L 75.308594 136.796875 Z M 75.953125 135.535156 "/>
<path style=" stroke:none;fill-rule:evenodd;fill:rgb(98.039216%,95.686275%,38.431373%);fill-opacity:1;" d="M 17.742188 109.835938 L 18.386719 111.09375 L 20.488281 111.484375 L 18.386719 111.867188 L 17.742188 113.128906 L 17.097656 111.867188 L 14.996094 111.484375 L 17.097656 111.09375 Z M 17.742188 109.835938 "/>
<path style=" stroke:none;fill-rule:evenodd;fill:rgb(98.039216%,95.686275%,38.431373%);fill-opacity:1;" d="M 14.996094 42.289062 L 15.640625 43.546875 L 17.742188 43.9375 L 15.640625 44.320312 L 14.996094 45.582031 L 14.347656 44.320312 L 12.25 43.9375 L 14.347656 43.546875 Z M 14.996094 42.289062 "/>
<path style=" stroke:none;fill-rule:evenodd;fill:rgb(98.039216%,95.686275%,38.431373%);fill-opacity:1;" d="M 40.53125 21.53125 L 41.371094 23.167969 L 44.101562 23.671875 L 41.371094 24.175781 L 40.53125 25.8125 L 39.695312 24.175781 L 36.964844 23.671875 L 39.695312 23.167969 Z M 40.53125 21.53125 "/>
<path style=" stroke:none;fill-rule:evenodd;fill:rgb(98.039216%,95.686275%,38.431373%);fill-opacity:1;" d="M 229.167969 42.945312 L 229.683594 43.953125 L 231.363281 44.265625 L 229.683594 44.574219 L 229.167969 45.582031 L 228.652344 44.574219 L 226.96875 44.265625 L 228.652344 43.953125 Z M 229.167969 42.945312 "/>
<path style=" stroke:none;fill-rule:evenodd;fill:rgb(98.039216%,95.686275%,38.431373%);fill-opacity:1;" d="M 234.660156 60.742188 L 235.433594 62.25 L 237.957031 62.71875 L 235.433594 63.179688 L 234.660156 64.695312 L 233.886719 63.179688 L 231.363281 62.71875 L 233.886719 62.25 Z M 234.660156 60.742188 "/>
</g>
</svg>
